<mxfile host="app.diagrams.net" modified="2023-10-27T21:33:22.862Z" agent="Mozilla/5.0 (X11; Ubuntu; Linux x86_64; rv:109.0) Gecko/20100101 Firefox/118.0" etag="q6TVJ6Dc7N5WUCHBziBQ" version="22.0.8" type="device">
  <diagram name="Page-1" id="amLtKFg23DtBWEtPBiIc">
    <mxGraphModel dx="1235" dy="1197" grid="1" gridSize="10" guides="1" tooltips="1" connect="1" arrows="1" fold="1" page="1" pageScale="1" pageWidth="850" pageHeight="1100" math="0" shadow="0">
      <root>
        <mxCell id="0" />
        <mxCell id="1" parent="0" />
        <mxCell id="WJQ3R18kNyVPnue7jKZE-18" value="" style="group" vertex="1" connectable="0" parent="1">
          <mxGeometry x="60" y="140" width="559.59" height="880" as="geometry" />
        </mxCell>
        <mxCell id="WJQ3R18kNyVPnue7jKZE-1" value="" style="sketch=0;pointerEvents=1;shadow=0;dashed=0;html=1;strokeColor=none;fillColor=#434445;aspect=fixed;labelPosition=center;verticalLabelPosition=bottom;verticalAlign=top;align=center;outlineConnect=0;shape=mxgraph.vvd.cpu;" vertex="1" parent="WJQ3R18kNyVPnue7jKZE-18">
          <mxGeometry x="225.64112903225805" width="112.82051282051282" height="112.82051282051282" as="geometry" />
        </mxCell>
        <mxCell id="WJQ3R18kNyVPnue7jKZE-3" style="edgeStyle=orthogonalEdgeStyle;rounded=0;orthogonalLoop=1;jettySize=auto;html=1;endArrow=classic;endFill=1;startArrow=classic;startFill=1;" edge="1" parent="WJQ3R18kNyVPnue7jKZE-18" source="WJQ3R18kNyVPnue7jKZE-2" target="WJQ3R18kNyVPnue7jKZE-1">
          <mxGeometry relative="1" as="geometry">
            <mxPoint x="282.05141129032256" y="135.3846153846154" as="targetPoint" />
          </mxGeometry>
        </mxCell>
        <mxCell id="WJQ3R18kNyVPnue7jKZE-17" value="&lt;div&gt;UDP&lt;/div&gt;" style="edgeLabel;html=1;align=center;verticalAlign=middle;resizable=0;points=[];" vertex="1" connectable="0" parent="WJQ3R18kNyVPnue7jKZE-3">
          <mxGeometry x="0.0476" y="-1" relative="1" as="geometry">
            <mxPoint as="offset" />
          </mxGeometry>
        </mxCell>
        <mxCell id="WJQ3R18kNyVPnue7jKZE-2" value="" style="image;aspect=fixed;perimeter=ellipsePerimeter;html=1;align=center;shadow=0;dashed=0;spacingTop=3;image=img/lib/active_directory/web_server.svg;" vertex="1" parent="WJQ3R18kNyVPnue7jKZE-18">
          <mxGeometry x="236.92318548387095" y="383.5897435897436" width="90.25641025641025" height="112.82051282051282" as="geometry" />
        </mxCell>
        <mxCell id="WJQ3R18kNyVPnue7jKZE-4" value="" style="image;aspect=fixed;perimeter=ellipsePerimeter;html=1;align=center;shadow=0;dashed=0;spacingTop=3;image=img/lib/active_directory/laptop_client.svg;" vertex="1" parent="WJQ3R18kNyVPnue7jKZE-18">
          <mxGeometry y="699.4871794871794" width="101.53846153846153" height="112.82051282051282" as="geometry" />
        </mxCell>
        <mxCell id="WJQ3R18kNyVPnue7jKZE-9" style="rounded=0;orthogonalLoop=1;jettySize=auto;html=1;exitX=0.015;exitY=0.015;exitDx=0;exitDy=0;exitPerimeter=0;entryX=1;entryY=0.75;entryDx=0;entryDy=0;startArrow=classic;startFill=1;" edge="1" parent="WJQ3R18kNyVPnue7jKZE-18" source="WJQ3R18kNyVPnue7jKZE-5" target="WJQ3R18kNyVPnue7jKZE-2">
          <mxGeometry relative="1" as="geometry" />
        </mxCell>
        <mxCell id="WJQ3R18kNyVPnue7jKZE-14" value="&lt;font style=&quot;font-size: 15px;&quot;&gt;HTTP&lt;/font&gt;" style="edgeLabel;html=1;align=center;verticalAlign=middle;resizable=0;points=[];" vertex="1" connectable="0" parent="WJQ3R18kNyVPnue7jKZE-9">
          <mxGeometry x="-0.02" y="-2" relative="1" as="geometry">
            <mxPoint as="offset" />
          </mxGeometry>
        </mxCell>
        <mxCell id="WJQ3R18kNyVPnue7jKZE-5" value="" style="sketch=0;points=[[0.015,0.015,0],[0.985,0.015,0],[0.985,0.985,0],[0.015,0.985,0],[0.25,0,0],[0.5,0,0],[0.75,0,0],[1,0.25,0],[1,0.5,0],[1,0.75,0],[0.75,1,0],[0.5,1,0],[0.25,1,0],[0,0.75,0],[0,0.5,0],[0,0.25,0]];verticalLabelPosition=bottom;html=1;verticalAlign=top;aspect=fixed;align=center;pointerEvents=1;shape=mxgraph.cisco19.cell_phone;fillColor=#005073;strokeColor=none;" vertex="1" parent="WJQ3R18kNyVPnue7jKZE-18">
          <mxGeometry x="503.17971774193546" y="722.051282051282" width="56.41025641025641" height="112.82051282051282" as="geometry" />
        </mxCell>
        <mxCell id="WJQ3R18kNyVPnue7jKZE-8" style="edgeStyle=orthogonalEdgeStyle;rounded=0;orthogonalLoop=1;jettySize=auto;html=1;entryX=0.5;entryY=1;entryDx=0;entryDy=0;startArrow=classic;startFill=1;" edge="1" parent="WJQ3R18kNyVPnue7jKZE-18" source="WJQ3R18kNyVPnue7jKZE-6" target="WJQ3R18kNyVPnue7jKZE-2">
          <mxGeometry relative="1" as="geometry" />
        </mxCell>
        <mxCell id="WJQ3R18kNyVPnue7jKZE-13" value="&lt;font style=&quot;font-size: 15px;&quot;&gt;HTTP&lt;/font&gt;" style="edgeLabel;html=1;align=center;verticalAlign=middle;resizable=0;points=[];" vertex="1" connectable="0" parent="WJQ3R18kNyVPnue7jKZE-8">
          <mxGeometry x="-0.0019" y="-2" relative="1" as="geometry">
            <mxPoint x="1" y="-1" as="offset" />
          </mxGeometry>
        </mxCell>
        <mxCell id="WJQ3R18kNyVPnue7jKZE-6" value="" style="image;aspect=fixed;perimeter=ellipsePerimeter;html=1;align=center;shadow=0;dashed=0;spacingTop=3;image=img/lib/active_directory/workstation_client.svg;" vertex="1" parent="WJQ3R18kNyVPnue7jKZE-18">
          <mxGeometry x="234.66677419354838" y="767.1794871794872" width="95.8974358974359" height="112.82051282051282" as="geometry" />
        </mxCell>
        <mxCell id="WJQ3R18kNyVPnue7jKZE-10" style="rounded=0;orthogonalLoop=1;jettySize=auto;html=1;exitX=0.75;exitY=0;exitDx=0;exitDy=0;entryX=-0.021;entryY=0.857;entryDx=0;entryDy=0;entryPerimeter=0;startArrow=classic;startFill=1;" edge="1" parent="WJQ3R18kNyVPnue7jKZE-18" source="WJQ3R18kNyVPnue7jKZE-4" target="WJQ3R18kNyVPnue7jKZE-2">
          <mxGeometry relative="1" as="geometry" />
        </mxCell>
        <mxCell id="WJQ3R18kNyVPnue7jKZE-12" value="&lt;font style=&quot;font-size: 15px;&quot;&gt;HTTP&lt;/font&gt;" style="edgeLabel;html=1;align=center;verticalAlign=middle;resizable=0;points=[];" vertex="1" connectable="0" parent="WJQ3R18kNyVPnue7jKZE-10">
          <mxGeometry x="0.1312" y="2" relative="1" as="geometry">
            <mxPoint y="5" as="offset" />
          </mxGeometry>
        </mxCell>
        <mxCell id="WJQ3R18kNyVPnue7jKZE-15" value="&lt;div style=&quot;font-size: 16px;&quot;&gt;&lt;font style=&quot;font-size: 16px;&quot;&gt;Web/Control&lt;/font&gt;&lt;/div&gt;&lt;div style=&quot;font-size: 16px;&quot;&gt;&lt;font style=&quot;font-size: 16px;&quot;&gt;Server&lt;/font&gt;&lt;/div&gt;" style="text;html=1;align=center;verticalAlign=middle;resizable=0;points=[];autosize=1;strokeColor=none;fillColor=none;" vertex="1" parent="WJQ3R18kNyVPnue7jKZE-18">
          <mxGeometry x="290.1027016129032" y="367.3076923076923" width="110" height="50" as="geometry" />
        </mxCell>
        <mxCell id="WJQ3R18kNyVPnue7jKZE-16" value="&lt;font style=&quot;font-size: 16px;&quot;&gt;ESP32&lt;/font&gt;" style="text;html=1;align=center;verticalAlign=middle;resizable=0;points=[];autosize=1;strokeColor=none;fillColor=none;" vertex="1" parent="WJQ3R18kNyVPnue7jKZE-18">
          <mxGeometry x="333.4616935483871" y="22.564102564102562" width="70" height="30" as="geometry" />
        </mxCell>
      </root>
    </mxGraphModel>
  </diagram>
</mxfile>
